<svg width="32" height="28" viewBox="0 0 32 28" fill="none" xmlns="http://www.w3.org/2000/svg">
<rect x="15.75" y="11.251" width="16.2529" height="16.25" rx="2" fill="#CFD8F6"/>
<ellipse cx="24.1141" cy="20.0924" rx="1.25469" ry="1.25447" fill="#FEF7FF"/>
<mask id="mask0_518_3395" style="mask-type:alpha" maskUnits="userSpaceOnUse" x="0" y="0" width="29" height="28">
<rect width="19.48" height="19.4809" transform="matrix(0.667796 -0.744345 0.744603 0.667507 0.75 14.5005)" fill="#D9D9D9"/>
</mask>
<g mask="url(#mask0_518_3395)">
<path d="M13.966 20.2856C14.1802 20.0468 14.2787 19.7688 14.2616 19.4517C14.2442 19.1346 14.1161 18.869 13.8772 18.6549C13.6383 18.4407 13.3603 18.3422 13.043 18.3593C12.7258 18.3767 12.4601 18.5048 12.2458 18.7436C12.0316 18.9824 11.9331 19.2603 11.9502 19.5774C11.9676 19.8946 12.0957 20.1602 12.3346 20.3743C12.5735 20.5885 12.8515 20.687 13.1688 20.6698C13.486 20.6525 13.7517 20.5244 13.966 20.2856ZM7.9864 14.9252C8.20064 14.6864 8.29918 14.4084 8.28204 14.0913C8.26468 13.7742 8.13655 13.5086 7.89767 13.2944C7.65878 13.0803 7.38072 12.9818 7.06349 12.9989C6.74626 13.0163 6.48053 13.1444 6.26629 13.3832C6.05205 13.622 5.95351 13.8999 5.97065 14.217C5.98802 14.5341 6.11614 14.7997 6.35502 15.0139C6.59391 15.228 6.87197 15.3265 7.1892 15.3094C7.50643 15.292 7.77216 15.164 7.9864 14.9252ZM13.6575 14.6167C13.8717 14.3779 13.9703 14.0999 13.9531 13.7828C13.9358 13.4657 13.8076 13.2001 13.5688 12.986C13.3299 12.7718 13.0518 12.6733 12.7346 12.6904C12.4174 12.7078 12.1516 12.8359 11.9374 13.0747C11.7231 13.3135 11.6246 13.5914 11.6417 13.9086C11.6591 14.2257 11.7872 14.4913 12.0261 14.7054C12.265 14.9196 12.5431 15.0181 12.8603 15.0009C13.1775 14.9836 13.4433 14.8555 13.6575 14.6167ZM19.3286 14.3082C19.5428 14.0694 19.6414 13.7915 19.6242 13.4744C19.6069 13.1573 19.4787 12.8916 19.2399 12.6775C19.001 12.4633 18.7229 12.3648 18.4057 12.382C18.0885 12.3993 17.8227 12.5274 17.6085 12.7662C17.3942 13.005 17.2957 13.283 17.3128 13.6001C17.3302 13.9172 17.4583 14.1828 17.6972 14.397C17.9361 14.6111 18.2142 14.7096 18.5314 14.6925C18.8486 14.6751 19.1144 14.547 19.3286 14.3082ZM13.349 8.9478C13.5633 8.709 13.6618 8.43105 13.6447 8.11394C13.6273 7.79684 13.4992 7.53121 13.2603 7.31706C13.0214 7.10291 12.7434 7.00441 12.4261 7.02155C12.1089 7.03892 11.8432 7.167 11.6289 7.40579C11.4147 7.64459 11.3161 7.92255 11.3333 8.23966C11.3507 8.55676 11.4788 8.82239 11.7177 9.03654C11.9565 9.25069 12.2346 9.34919 12.5518 9.33205C12.8691 9.31468 13.1348 9.1866 13.349 8.9478ZM14.5709 24.0043C14.2493 24.3628 13.8528 24.5548 13.3815 24.5805C12.9102 24.6061 12.4953 24.4582 12.1367 24.1367L2.6349 15.6187C2.27628 15.2972 2.08415 14.9009 2.05851 14.4298C2.03288 13.9587 2.18087 13.5439 2.5025 13.1854L11.024 3.68712C11.3456 3.32863 11.742 3.13657 12.2133 3.11093C12.6846 3.0853 13.0996 3.23323 13.4582 3.55472L22.96 12.0727C23.3186 12.3942 23.5107 12.7905 23.5364 13.2616C23.562 13.7327 23.414 14.1475 23.0924 14.506L14.5709 24.0043Z" fill="#4243C4"/>
</g>
</svg>
