<svg width="30" height="30" viewBox="0 0 30 30" fill="none" xmlns="http://www.w3.org/2000/svg">
<path fill-rule="evenodd" clip-rule="evenodd" d="M7.50781 2.50098C6.84477 2.50098 6.20889 2.7512 5.74005 3.1966C5.2712 3.642 5.00781 4.24609 5.00781 4.87598V23.876C5.00781 24.5059 5.2712 25.11 5.74005 25.5553C6.20889 26.0007 6.84477 26.251 7.50781 26.251H22.5078C23.1709 26.251 23.8067 26.0007 24.2756 25.5553C24.7444 25.11 25.0078 24.5059 25.0078 23.876V7.7426C25.0077 7.11276 24.7442 6.50877 24.2753 6.06348L21.2578 3.19685C20.7891 2.75142 20.1533 2.50111 19.4903 2.50098H7.50781ZM20.3053 12.9427C20.4247 12.8331 20.5199 12.7021 20.5854 12.5572C20.6509 12.4123 20.6854 12.2565 20.6869 12.0988C20.6883 11.9412 20.6567 11.7848 20.5938 11.6388C20.531 11.4929 20.4382 11.3603 20.3208 11.2488C20.2034 11.1373 20.0639 11.0491 19.9103 10.9894C19.7566 10.9297 19.592 10.8997 19.4261 10.9011C19.2601 10.9024 19.0961 10.9352 18.9436 10.9974C18.791 11.0597 18.6531 11.1501 18.5378 11.2635L13.2353 16.3021L11.4666 14.6218C11.2308 14.4055 10.9151 14.2858 10.5873 14.2885C10.2596 14.2912 9.94605 14.4161 9.71429 14.6363C9.48253 14.8564 9.35107 15.1543 9.34822 15.4656C9.34537 15.777 9.47136 16.0769 9.69906 16.3009L12.2616 18.7365C12.3893 18.8578 12.5409 18.9541 12.7077 19.0198C12.8746 19.0855 13.0534 19.1193 13.2341 19.1193C13.4147 19.1193 13.5935 19.0855 13.7604 19.0198C13.9273 18.9541 14.0789 18.8578 14.2066 18.7365L20.3053 12.9427Z" fill="#4243C4"/>
</svg>
