<svg width="26" height="25" viewBox="0 0 26 25" fill="none" xmlns="http://www.w3.org/2000/svg">
<circle cx="13.0156" cy="12.498" r="12.5" fill="#4243C4"/>
<mask id="mask0_518_3377" style="mask-type:alpha" maskUnits="userSpaceOnUse" x="3" y="3" width="20" height="19">
<rect x="3.64844" y="3.12207" width="18.75" height="18.75" fill="#FEF7FF"/>
</mask>
<g mask="url(#mask0_518_3377)">
<path d="M11.9375 15.6221C11.9375 14.5674 12.0319 13.8089 12.2207 13.3467C12.4095 12.8844 12.8099 12.3799 13.4219 11.833C13.9557 11.3643 14.3626 10.9574 14.6426 10.6123C14.9225 10.2673 15.0625 9.87337 15.0625 9.43066C15.0625 8.89681 14.8835 8.4541 14.5254 8.10254C14.1673 7.75098 13.6693 7.5752 13.0312 7.5752C12.3672 7.5752 11.8626 7.77702 11.5176 8.18066C11.1725 8.58431 10.9284 8.99447 10.7852 9.41113L8.77344 8.55176C9.04688 7.71842 9.54818 6.99577 10.2773 6.38379C11.0065 5.77181 11.9245 5.46582 13.0312 5.46582C14.3984 5.46582 15.4499 5.84668 16.1855 6.6084C16.9212 7.37012 17.2891 8.28483 17.2891 9.35254C17.2891 10.0036 17.1491 10.5602 16.8691 11.0225C16.5892 11.4847 16.1497 12.0088 15.5508 12.5947C14.9128 13.2067 14.5254 13.6722 14.3887 13.9912C14.252 14.3102 14.1836 14.8538 14.1836 15.6221H11.9375ZM13.0312 20.3096C12.6016 20.3096 12.2337 20.1566 11.9277 19.8506C11.6217 19.5446 11.4688 19.1768 11.4688 18.7471C11.4688 18.3174 11.6217 17.9495 11.9277 17.6436C12.2337 17.3376 12.6016 17.1846 13.0312 17.1846C13.4609 17.1846 13.8288 17.3376 14.1348 17.6436C14.4408 17.9495 14.5938 18.3174 14.5938 18.7471C14.5938 19.1768 14.4408 19.5446 14.1348 19.8506C13.8288 20.1566 13.4609 20.3096 13.0312 20.3096Z" fill="#FEF7FF"/>
</g>
</svg>
