<svg width="20" height="19" viewBox="0 0 20 19" fill="none" xmlns="http://www.w3.org/2000/svg">
<path d="M6.79929 14.3333L7.52044 14.5394L7.79359 13.5833H6.79929V14.3333ZM6.06641 16.8984L5.34526 16.6924L4.87688 18.3317L6.40182 17.5693L6.06641 16.8984ZM11.1966 14.3333V13.5833H11.0196L10.8612 13.6625L11.1966 14.3333ZM1.75 3C1.75 2.30964 2.30964 1.75 3 1.75V0.25C1.48122 0.25 0.25 1.48121 0.25 3H1.75ZM1.75 12.3333V3H0.25V12.3333H1.75ZM3 13.5833C2.30964 13.5833 1.75 13.0237 1.75 12.3333H0.25C0.25 13.8521 1.48122 15.0833 3 15.0833V13.5833ZM6.79929 13.5833H3V15.0833H6.79929V13.5833ZM6.07815 14.1273L5.34526 16.6924L6.78755 17.1045L7.52044 14.5394L6.07815 14.1273ZM6.40182 17.5693L11.532 15.0042L10.8612 13.6625L5.731 16.2276L6.40182 17.5693ZM16.6 13.5833H11.1966V15.0833H16.6V13.5833ZM17.85 12.3333C17.85 13.0237 17.2904 13.5833 16.6 13.5833V15.0833C18.1188 15.0833 19.35 13.8521 19.35 12.3333H17.85ZM17.85 3V12.3333H19.35V3H17.85ZM16.6 1.75C17.2904 1.75 17.85 2.30964 17.85 3H19.35C19.35 1.48122 18.1188 0.25 16.6 0.25V1.75ZM3 1.75H16.6V0.25H3V1.75Z" fill="#49454F"/>
</svg>
