<svg width="192" height="192" viewBox="0 0 192 192" fill="none" xmlns="http://www.w3.org/2000/svg">
<rect width="192" height="192" rx="30" fill="url(#paint0_linear_3102_2940)"/>
<circle cx="94.5706" cy="102.143" r="14.1429" fill="#FFFAFA"/>
<path d="M122.357 154.001H66.7852C66.509 154.001 66.2852 153.777 66.2852 153.501V140.871C66.2852 140.198 66.3567 139.525 66.6046 138.899C67.8629 135.718 73.4959 125.715 94.5709 125.715C115.646 125.715 121.279 135.718 122.537 138.899C122.785 139.525 122.857 140.198 122.857 140.871V153.501C122.857 153.777 122.633 154.001 122.357 154.001Z" fill="#FFFAFA"/>
<circle cx="127.571" cy="102.143" r="14.1429" fill="#FFFAFA"/>
<circle cx="61.5706" cy="102.143" r="14.1429" fill="#FFFAFA"/>
<path d="M61.3873 153.354C58.1578 141.684 61.0141 135.805 63.7395 126.373C63.8333 126.048 63.5803 125.725 63.2426 125.738C51.3662 126.189 43.5536 128.868 38.4803 137.7C38.1548 138.267 37.9992 138.914 37.9992 139.567V153.501C37.9992 153.777 38.223 154.001 38.4992 154.001H60.9046C61.2377 154.001 61.4761 153.675 61.3873 153.354Z" fill="#FFFAFA"/>
<path d="M130.112 153.354C133.341 141.684 130.485 135.805 127.76 126.373C127.666 126.048 127.919 125.725 128.256 125.738C140.133 126.189 147.945 128.868 153.019 137.7C153.344 138.267 153.5 138.914 153.5 139.567V153.501C153.5 153.777 153.276 154.001 153 154.001H130.594C130.261 154.001 130.023 153.675 130.112 153.354Z" fill="#FFFAFA"/>
<path d="M62 53.5611C67.2918 48.5806 72.7101 42.2425 79.1699 38.6708C80.654 37.8503 82.7228 37.5328 84.1317 38.6708C86.9856 40.976 82.9423 47.3398 82.0613 49.3732C80.4227 53.1555 78.7206 56.9098 77.0639 60.6841C76.3427 62.3268 75.1987 64.4417 74.7257 66.2858C74.4535 67.3474 74.72 68.1288 75.7431 68.6303C78.3466 69.9066 80.8582 67.5963 82.6682 65.9815C87.6241 61.56 91.9784 56.4328 95.9294 51.1092C98.9289 47.0675 101.844 43.3183 106.049 40.4605C108.34 38.9036 114.89 35.2833 117.633 37.9549C120.051 40.3105 117.017 46.7499 116.151 49.051C114.888 52.4081 112.295 56.1826 111.886 59.8071C111.44 63.7522 114.54 64.2113 117.436 62.3664C123.004 58.8204 127.524 53.678 133 50.0175" stroke="white" stroke-width="3" stroke-linecap="round"/>
<defs>
<linearGradient id="paint0_linear_3102_2940" x1="179.5" y1="8.5" x2="-40.5" y2="206.5" gradientUnits="userSpaceOnUse">
<stop stop-color="#6F3393"/>
<stop offset="1" stop-color="#22102D"/>
</linearGradient>
</defs>
</svg>
